<svg xmlns="http://www.w3.org/2000/svg" width="650" height="490" viewBox="0 0 260 196" font-family="Arial, sans-serif">
  <defs>
    <marker id="ah" viewBox="0 0 8 6" refX="8" refY="3"
      markerWidth="4" markerHeight="3" orient="auto">
      <path d="M0.5,0.5 L7,3 L0.5,5.5" fill="none" stroke="#94A3B8"
        stroke-width="1.2" stroke-linejoin="round" stroke-linecap="round"/>
    </marker>
    <filter id="shadow" x="-6%" y="-8%" width="112%" height="128%">
      <feDropShadow dx="0" dy="0.5" stdDeviation="0.8"
        flood-color="#000" flood-opacity="0.05"/>
    </filter>
  </defs>
  <rect width="260" height="196" fill="#F8F9FB" rx="3"/>
  <text x="130" y="11" text-anchor="middle" font-size="6" font-weight="700" fill="#1E293B">sEURe Architecture</text>
  <rect x="55" y="16" width="150" height="10" rx="3" fill="#fff" stroke="#E2E5EA" stroke-width="0.4"/>
  <rect x="60" y="18.5" width="5" height="5" rx="2.5" fill="#fff" stroke="#E2E5EA" stroke-width="0.4"/>
  <text x="68" y="22.5" font-size="3.5" fill="#1E293B">Actor</text>
  <rect x="100" y="18.5" width="5" height="5" rx="1.5" fill="#fff" stroke="#E2E5EA" stroke-width="0.4"/>
  <rect x="101" y="19.5" width="0.8" height="3" rx="0.4" fill="#3B82F6"/>
  <text x="108" y="22.5" font-size="3.5" fill="#1E293B">Protocol</text>
  <rect x="148" y="18.5" width="5" height="5" rx="1.5" fill="#fff" stroke="#E2E5EA" stroke-width="0.4"/>
  <rect x="149" y="19.5" width="0.8" height="3" rx="0.4" fill="#F59E0B"/>
  <text x="156" y="22.5" font-size="3.5" fill="#1E293B">External</text>
  <rect x="20.0" y="84.0" width="211.6" height="40.0" rx="5" fill="#EDEEF2"/>
  <text x="228.6" y="89.0" text-anchor="end" font-size="3.5" fill="#94A3B8" font-weight="500">Vault Layer</text>
  <path d="M88.9,46.0 C88.9,70.0 66.4,70.0 66.4,94.0" fill="none" stroke="#94A3B8" stroke-width="0.5" marker-end="url(#ah)"/>
  <path d="M88.9,46.0 C88.9,70.0 173.2,70.0 173.2,94.0" fill="none" stroke="#94A3B8" stroke-width="0.5" marker-end="url(#ah)"/>
  <path d="M124.8,112.0 C118.2,134.0 109.4,134.0 102.8,114.0" fill="none" stroke="#94A3B8" stroke-width="0.5" marker-end="url(#ah)"/>
  <path d="M173.2,114.0 C173.2,135.0 95.2,135.0 95.2,156.0" fill="none" stroke="#94A3B8" stroke-width="0.5" marker-end="url(#ah)"/>
  <path d="M66.4,114.0 C66.4,135.0 95.2,135.0 95.2,156.0" fill="none" stroke="#94A3B8" stroke-width="0.5" marker-end="url(#ah)"/>
  <path d="M191.2,156.0 C191.2,135.0 173.2,135.0 173.2,114.0" fill="none" stroke="#94A3B8" stroke-width="0.5" marker-end="url(#ah)"/>
  <g filter="url(#shadow)">
    <rect x="47.7" y="32.0" width="82.4" height="14" rx="7" fill="#fff" stroke="#E2E5EA" stroke-width="0.5"/>
    <text x="88.9" y="40.8" text-anchor="middle" font-size="4.8" font-weight="600" fill="#1E293B">User / Keeper</text>
  </g>
  <g filter="url(#shadow)">
    <rect x="30.0" y="94.0" width="72.8" height="20" rx="3" fill="#fff" stroke="#E2E5EA" stroke-width="0.5"/>
    <rect x="33.0" y="97.0" width="1.4" height="14" rx="0.6" fill="#3B82F6"/>
    <text x="66.4" y="103.5" text-anchor="middle" font-size="4.8" font-weight="600" fill="#1E293B">SavingsEURe</text>
    <text x="66.4" y="108.5" text-anchor="middle" font-size="3.5" fill="#64748B">ERC4626 Vault</text>
  </g>
  <g filter="url(#shadow)">
    <rect x="124.8" y="94.0" width="96.8" height="20" rx="3" fill="#fff" stroke="#E2E5EA" stroke-width="0.5"/>
    <rect x="127.8" y="97.0" width="1.4" height="14" rx="0.6" fill="#3B82F6"/>
    <text x="173.2" y="103.5" text-anchor="middle" font-size="4.8" font-weight="600" fill="#1E293B">InterestDispatcher</text>
    <text x="173.2" y="108.5" text-anchor="middle" font-size="3.5" fill="#64748B">Epoch Drip / UUPS</text>
  </g>
  <g filter="url(#shadow)">
    <rect x="60.0" y="156.0" width="70.4" height="20" rx="3" fill="#fff" stroke="#E2E5EA" stroke-width="0.5"/>
    <rect x="63.0" y="159.0" width="1.4" height="14" rx="0.6" fill="#F59E0B"/>
    <text x="95.2" y="165.5" text-anchor="middle" font-size="4.8" font-weight="600" fill="#1E293B">EURe</text>
    <text x="95.2" y="170.5" text-anchor="middle" font-size="3.5" fill="#64748B">Monerium ERC20</text>
  </g>
  <g filter="url(#shadow)">
    <rect x="152.4" y="156.0" width="77.6" height="20" rx="3" fill="#fff" stroke="#E2E5EA" stroke-width="0.5"/>
    <rect x="155.4" y="159.0" width="1.4" height="14" rx="0.6" fill="#F59E0B"/>
    <text x="191.2" y="165.5" text-anchor="middle" font-size="4.8" font-weight="600" fill="#1E293B">Monerium Bot</text>
    <text x="191.2" y="170.5" text-anchor="middle" font-size="3.5" fill="#64748B">Funder</text>
  </g>
  <rect x="56.5" y="65.0" width="42.4" height="6.0" rx="1" fill="#F8F9FB"/>
  <text x="77.7" y="70.0" font-size="4" fill="#1E293B" font-weight="500" text-anchor="middle">deposit / redeem</text>
  <rect x="115.9" y="65.0" width="30.4" height="6.0" rx="1" fill="#F8F9FB"/>
  <text x="131.1" y="70.0" font-size="4" fill="#1E293B" font-weight="500" text-anchor="middle">claim yield</text>
  <rect x="101.0" y="133.0" width="25.6" height="6.0" rx="1" fill="#F8F9FB"/>
  <text x="113.8" y="138.0" font-size="4" fill="#1E293B" font-weight="500" text-anchor="middle">drip EURe</text>
  <rect x="122.6" y="126.0" width="23.2" height="6.0" rx="1" fill="#F8F9FB"/>
  <text x="134.2" y="131.0" font-size="4" fill="#1E293B" font-weight="500" text-anchor="middle">transfer</text>
  <rect x="64.4" y="130.0" width="32.8" height="6.0" rx="1" fill="#F8F9FB"/>
  <text x="80.8" y="135.0" font-size="4" fill="#1E293B" font-weight="500" text-anchor="middle">transferFrom</text>
  <rect x="169.4" y="130.0" width="25.6" height="6.0" rx="1" fill="#F8F9FB"/>
  <text x="182.2" y="135.0" font-size="4" fill="#1E293B" font-weight="500" text-anchor="middle">fund EURe</text>
</svg>