<svg xmlns="http://www.w3.org/2000/svg" width="713" height="645" viewBox="0 0 285 258" font-family="Arial, sans-serif">
  <defs>
    <marker id="ah" viewBox="0 0 8 6" refX="8" refY="3"
      markerWidth="4" markerHeight="3" orient="auto">
      <path d="M0.5,0.5 L7,3 L0.5,5.5" fill="none" stroke="#94A3B8"
        stroke-width="1.2" stroke-linejoin="round" stroke-linecap="round"/>
    </marker>
    <filter id="shadow" x="-6%" y="-8%" width="112%" height="128%">
      <feDropShadow dx="0" dy="0.5" stdDeviation="0.8"
        flood-color="#000" flood-opacity="0.05"/>
    </filter>
  </defs>
  <rect width="285" height="258" fill="#F8F9FB" rx="3"/>
  <text x="143" y="11" text-anchor="middle" font-size="6" font-weight="700" fill="#1E293B">sEURe Architecture</text>
  <rect x="68" y="16" width="150" height="10" rx="3" fill="#fff" stroke="#E2E5EA" stroke-width="0.4"/>
  <rect x="73" y="18.5" width="5" height="5" rx="2.5" fill="#fff" stroke="#E2E5EA" stroke-width="0.4"/>
  <text x="81" y="22.5" font-size="3.5" fill="#1E293B">Actor</text>
  <rect x="113" y="18.5" width="5" height="5" rx="1.5" fill="#fff" stroke="#E2E5EA" stroke-width="0.4"/>
  <rect x="114" y="19.5" width="0.8" height="3" rx="0.4" fill="#3B82F6"/>
  <text x="121" y="22.5" font-size="3.5" fill="#1E293B">Protocol</text>
  <rect x="161" y="18.5" width="5" height="5" rx="1.5" fill="#fff" stroke="#E2E5EA" stroke-width="0.4"/>
  <rect x="162" y="19.5" width="0.8" height="3" rx="0.4" fill="#F59E0B"/>
  <text x="169" y="22.5" font-size="3.5" fill="#1E293B">External</text>
  <rect x="20.0" y="84.0" width="245.2" height="102.0" rx="5" fill="#EDEEF2"/>
  <text x="262.2" y="89.0" text-anchor="end" font-size="3.5" fill="#94A3B8" font-weight="500">Protocol</text>
  <path d="M68.1,46.0 C68.1,70.0 83.2,70.0 83.2,94.0" fill="none" stroke="#94A3B8" stroke-width="0.5" marker-end="url(#ah)"/>
  <path d="M68.1,46.0 Q20.0,104.0 91.7,94.0" fill="none" stroke="#94A3B8" stroke-width="0.5" marker-end="url(#ah)"/>
  <path d="M91.7,94.0 Q148.4,104.0 115.4,156.0" fill="none" stroke="#94A3B8" stroke-width="0.5" marker-end="url(#ah)"/>
  <path d="M83.2,114.0 C83.2,135.0 115.4,135.0 115.4,156.0" fill="none" stroke="#94A3B8" stroke-width="0.5" marker-end="url(#ah)"/>
  <path d="M136.4,112.0 C143.0,130.0 151.8,130.0 158.4,114.0" fill="none" stroke="#94A3B8" stroke-width="0.5" marker-end="url(#ah)"/>
  <path d="M180.2,46.0 C180.2,70.0 206.8,70.0 206.8,94.0" fill="none" stroke="#94A3B8" stroke-width="0.5" marker-end="url(#ah)"/>
  <path d="M206.8,114.0 C206.8,135.0 115.4,135.0 115.4,156.0" fill="none" stroke="#94A3B8" stroke-width="0.5" marker-end="url(#ah)"/>
  <path d="M83.2,114.0 Q69.0,166.0 104.7,156.0" fill="none" stroke="#94A3B8" stroke-width="0.5" marker-end="url(#ah)"/>
  <path d="M104.7,156.0 Q163.8,166.0 126.2,218.0" fill="none" stroke="#94A3B8" stroke-width="0.5" marker-end="url(#ah)"/>
  <path d="M206.8,114.0 C206.8,135.0 166.5,135.0 166.5,156.0" fill="none" stroke="#94A3B8" stroke-width="0.5" marker-end="url(#ah)"/>
  <path d="M166.5,156.0 Q161.8,166.0 126.2,218.0" fill="none" stroke="#94A3B8" stroke-width="0.5" marker-end="url(#ah)"/>
  <path d="M115.4,176.0 C115.4,197.0 126.2,197.0 126.2,218.0" fill="none" stroke="#94A3B8" stroke-width="0.5" marker-end="url(#ah)"/>
  <g filter="url(#shadow)">
    <rect x="40.1" y="32.0" width="56.0" height="14" rx="7" fill="#fff" stroke="#E2E5EA" stroke-width="0.5"/>
    <text x="68.1" y="40.8" text-anchor="middle" font-size="4.8" font-weight="600" fill="#1E293B">User</text>
  </g>
  <g filter="url(#shadow)">
    <rect x="143.8" y="32.0" width="72.8" height="14" rx="7" fill="#fff" stroke="#E2E5EA" stroke-width="0.5"/>
    <text x="180.2" y="40.8" text-anchor="middle" font-size="4.8" font-weight="600" fill="#1E293B">Claimer Bot</text>
  </g>
  <g filter="url(#shadow)">
    <rect x="30.0" y="94.0" width="106.4" height="20" rx="3" fill="#fff" stroke="#E2E5EA" stroke-width="0.5"/>
    <rect x="33.0" y="97.0" width="1.4" height="14" rx="0.6" fill="#3B82F6"/>
    <text x="83.2" y="103.5" text-anchor="middle" font-size="4.8" font-weight="600" fill="#1E293B">SavingsEUReAdapter</text>
    <text x="83.2" y="108.5" text-anchor="middle" font-size="3.5" fill="#64748B">Entry point</text>
  </g>
  <g filter="url(#shadow)">
    <rect x="158.4" y="94.0" width="96.8" height="20" rx="3" fill="#fff" stroke="#E2E5EA" stroke-width="0.5"/>
    <rect x="161.4" y="97.0" width="1.4" height="14" rx="0.6" fill="#3B82F6"/>
    <text x="206.8" y="103.5" text-anchor="middle" font-size="4.8" font-weight="600" fill="#1E293B">InterestReceiver</text>
    <text x="206.8" y="108.5" text-anchor="middle" font-size="3.5" fill="#64748B">Drip</text>
  </g>
  <g filter="url(#shadow)">
    <rect x="79.0" y="156.0" width="72.8" height="20" rx="3" fill="#fff" stroke="#E2E5EA" stroke-width="0.5"/>
    <rect x="82.0" y="159.0" width="1.4" height="14" rx="0.6" fill="#3B82F6"/>
    <text x="115.4" y="165.5" text-anchor="middle" font-size="4.8" font-weight="600" fill="#1E293B">SavingsEURe</text>
    <text x="115.4" y="170.5" text-anchor="middle" font-size="3.5" fill="#64748B">ERC4626 Vault</text>
  </g>
  <g filter="url(#shadow)">
    <rect x="96.2" y="218.0" width="60.0" height="20" rx="3" fill="#fff" stroke="#E2E5EA" stroke-width="0.5"/>
    <rect x="99.2" y="221.0" width="1.4" height="14" rx="0.6" fill="#F59E0B"/>
    <text x="126.2" y="227.5" text-anchor="middle" font-size="4.8" font-weight="600" fill="#1E293B">EURe</text>
    <text x="126.2" y="232.5" text-anchor="middle" font-size="3.5" fill="#64748B">ERC20</text>
  </g>
  <rect x="54.4" y="65.0" width="42.4" height="6.0" rx="1" fill="#F8F9FB"/>
  <text x="75.6" y="70.0" font-size="4" fill="#1E293B" font-weight="500" text-anchor="middle">deposit/withdraw</text>
  <rect x="133.3" y="100.7" width="28.0" height="6.0" rx="1" fill="#EDEEF2"/>
  <text x="147.3" y="105.7" font-size="4" fill="#1E293B" font-weight="500" text-anchor="middle">direct ops</text>
  <rect x="84.1" y="130.0" width="30.4" height="6.0" rx="1" fill="#EDEEF2"/>
  <text x="99.3" y="135.0" font-size="4" fill="#1E293B" font-weight="500" text-anchor="middle">vault calls</text>
  <rect x="134.6" y="129.0" width="25.6" height="6.0" rx="1" fill="#EDEEF2"/>
  <text x="147.4" y="134.0" font-size="4" fill="#1E293B" font-weight="500" text-anchor="middle">try claim</text>
  <rect x="178.3" y="65.0" width="30.4" height="6.0" rx="1" fill="#F8F9FB"/>
  <text x="193.5" y="70.0" font-size="4" fill="#1E293B" font-weight="500" text-anchor="middle">claim yield</text>
  <rect x="147.1" y="122.0" width="28.0" height="6.0" rx="1" fill="#EDEEF2"/>
  <text x="161.1" y="127.0" font-size="4" fill="#1E293B" font-weight="500" text-anchor="middle">drip yield</text>
  <rect x="157.7" y="160.7" width="25.6" height="6.0" rx="1" fill="#EDEEF2"/>
  <text x="170.5" y="165.7" font-size="4" fill="#1E293B" font-weight="500" text-anchor="middle">pull EURe</text>
  <rect x="125.9" y="182.4" width="42.4" height="6.0" rx="1" fill="#F8F9FB"/>
  <text x="147.1" y="187.4" font-size="4" fill="#1E293B" font-weight="500" text-anchor="middle">balance/transfer</text>
  <rect x="106.8" y="192.0" width="28.0" height="6.0" rx="1" fill="#F8F9FB"/>
  <text x="120.8" y="197.0" font-size="4" fill="#1E293B" font-weight="500" text-anchor="middle">underlying</text>
</svg>